<svg xmlns="http://www.w3.org/2000/svg" width="512" height="512" viewBox="0 0 512 512">
  <defs>
    <linearGradient id="g" x1="0%" x2="100%" y1="0%" y2="100%">
      <stop offset="0%" stop-color="#61C49E"/>
      <stop offset="100%" stop-color="#2F9C77"/>
    </linearGradient>
  </defs>
  <rect width="100%" height="100%" rx="64" fill="url(#g)"/>
  <g transform="translate(128,128) scale(0.75)">
    <path fill="#fff" d="M128 0c-38.5 0-70 31.5-70 70 0 38.6 31.5 70 70 70 38.6 0 70-31.4 70-70 0-38.5-31.4-70-70-70zM128 30c22 0 40 18 40 40 0 22-18 40-40 40-22 0-40-18-40-40 0-22 18-40 40-40z"/>
  </g>
  <g transform="translate(80,320) scale(0.6)">
  <circle cx="128" cy="32" r="16" fill="#fff"/> 
  <path fill="#fff" d="M64 0c44 0 80 36 80 80s-36 80-80 80S-16 124-16 80 20 0 64 0z"/>
  </g>
</svg>
